<?xml version="1.0" encoding="UTF-8"?>
<svg xmlns="http://www.w3.org/2000/svg" xmlns:xlink="http://www.w3.org/1999/xlink" width="24pt" height="24pt" viewBox="0 0 24 24" version="1.1">
<g id="surface9736056">
<path style=" stroke:none;fill-rule:nonzero;fill:rgb(100%,100%,100%);fill-opacity:1;" d="M 14.398438 15.199219 L 14.398438 13.601562 C 14.761719 13.421875 15.789062 12.195312 15.898438 11.238281 C 16.179688 11.21875 16.625 10.957031 16.757812 9.929688 C 16.828125 9.378906 16.546875 9.070312 16.378906 8.972656 C 16.378906 8.972656 16.800781 8.167969 16.800781 7.199219 C 16.800781 5.257812 16.039062 3.601562 14.398438 3.601562 C 14.398438 3.601562 13.832031 2.402344 12 2.402344 C 8.605469 2.402344 7.199219 4.578125 7.199219 7.199219 C 7.199219 8.085938 7.621094 8.972656 7.621094 8.972656 C 7.453125 9.070312 7.171875 9.378906 7.242188 9.929688 C 7.375 10.957031 7.820312 11.21875 8.101562 11.238281 C 8.210938 12.195312 9.238281 13.421875 9.601562 13.601562 L 9.601562 15.199219 C 8.800781 17.601562 2.398438 16 2.398438 21.601562 L 21.601562 21.601562 C 21.601562 16 15.199219 17.601562 14.398438 15.199219 Z M 14.398438 15.199219 "/>
</g>
</svg>
